<?xml version="1.0" encoding="utf-8"?>
<!-- Generator: Adobe Illustrator 24.0.1, SVG Export Plug-In . SVG Version: 6.00 Build 0)  -->
<svg version="1.1" id="Layer_1" xmlns="http://www.w3.org/2000/svg" xmlns:xlink="http://www.w3.org/1999/xlink" x="0px" y="0px"
	 viewBox="0 0 530.1 527.8" style="enable-background:new 0 0 530.1 527.8;" xml:space="preserve">
<style type="text/css">
	.st0{fill:#001F3F;stroke:#2EC0F9;stroke-width:6;stroke-miterlimit:10;}
	.st1{fill:#2EC0F9;stroke:#2EC0F9;stroke-width:5;stroke-miterlimit:10;}
</style>
<path class="st0" d="M517.3,377.4c-9.5-22.2-34.8-32.1-56.6-24.8l-90.8,30.3c-0.3-3.7-1-7.5-2.2-11.1c-3.8-11.4-11.8-20.6-22.6-26
	l-124.4-62.2c-16.8-8.4-36.1-10.2-54.1-5l-37.1,10.6c-3.3-21.6-22-38.1-44.5-38.1H24c-8.3,0-15,6.7-15,15v210c0,8.3,6.7,15,15,15h91
	c8.3,0,15-6.7,15-15v-8l77.6,38.8c34.7,17.3,76.1,19.4,113.5,3.3l172.7-73.6C516.6,426.7,527.1,400.3,517.3,377.4z M100,461H39V281
	h46c8.3,0,15,6.7,15,15V461z M481.9,408.9l-172.7,73.6c-28.8,12.4-61,11.1-88.3-2.6l-91-45.5V320.2l44.8-12.8
	c10.9-3.1,22.4-2,32.5,3l124.4,62.2c7.4,3.7,10.4,12.7,6.7,20.1c-3.8,7.5-12.9,10.3-20.1,6.7L244,362.3
	c-18.9-9.5-42.2-4.3-55.4,12.3c-5.1,6.5-4.1,15.9,2.4,21.1c6.5,5.1,15.9,4.1,21.1-2.4c4.4-5.5,12.1-7.3,18.5-4.1l74.2,37.1
	c16.3,8.2,36.3,5.7,50.2-6.8l115.1-38.4c7.5-2.5,16.4,0.8,19.5,8.1C493.1,396.9,489.4,405.7,481.9,408.9z"/>
<path class="st0" d="M195.6,187.7l150,120c2.7,2.2,6.1,3.3,9.4,3.3s6.6-1.1,9.3-3.3l151-120c5-4,6.9-10.7,4.8-16.7s-7.7-10-14.1-10
	h-46V24c0-8.3-6.7-15-15-15H265c-8.3,0-15,6.7-15,15v137h-45c-6.4,0-12,4-14.2,10C188.7,177,190.7,183.7,195.6,187.7z M265,191
	c8.3,0,15-6.7,15-15V39h150v137c0,8.3,6.7,15,15,15h18l-108,85.8L247.8,191H265z"/>
<g>
	<g>
		<path class="st1" d="M381.1,185.3L381.1,185.3l-0.5,0.1c-0.3,0-0.5,0.1-0.7,0.2l-0.2,0.1c-3.5,1.8-7.1,2.7-10.8,2.7
			c-0.7,0-1.9-0.2-3.7-0.5c-1.8-0.3-3.8-0.7-5.9-1c-2.1-0.4-4.2-0.7-6.2-1.1c-2-0.4-3.6-0.5-4.8-0.5c-0.9,0-1.7,0-2.6,0.1l-3.6,0.3
			l2.5-2.7c0.3-0.3,0.5-0.5,0.7-0.8c1.1-1.3,2-2.7,2.8-4.1c0.7-1.4,1.2-3,1.5-4.6c0.3-1.7,0.5-3.6,0.5-5.6c0-0.9-0.1-1.9-0.3-2.8
			l-0.4-1.7h13.9c0.2,0,0.5-0.1,0.7-0.2c1.5-0.5,2.5-1.9,2.5-3.4c0-1.7-1.2-3.2-2.9-3.5c-0.1,0-0.2,0-0.3,0l0,0h-0.1H363h-15.3
			l-0.3-1c-1.6-5.1-2.4-9.5-2.4-12.9c0-1.7,0.3-3.3,0.9-4.8s1.5-2.8,2.6-4c1.1-1.1,2.4-2,3.9-2.7c1.5-0.6,3.3-1,5.2-1
			c7.7,0,11.8,3.7,12.5,11.2v0.1v0.3v0.1c0,0.2,0.1,0.4,0.1,0.7c0.4,2.4,2.3,4.1,4.6,4.1c2.4,0,4.4-1.8,4.7-4.2l0,0v-0.6
			c0,0,0-0.1,0-0.2v-0.1c-0.3-3-1-5.7-2.2-8s-2.7-4.3-4.5-5.8c-1.9-1.6-4.1-2.8-6.6-3.6c-2.6-0.8-5.4-1.2-8.5-1.2
			c-3.3,0-6.4,0.5-9.1,1.4s-5.1,2.3-7,4.1c-2,1.7-3.5,3.9-4.6,6.5c-1.1,2.6-1.6,5.4-1.6,8.6c0,1.5,0.2,3.3,0.6,5.4
			c0.3,1.7,0.8,3.6,1.4,5.8l0.5,1.8H330c-1.8,0.2-3.2,1.7-3.2,3.6c0,1.8,1.4,3.4,3.2,3.5l0.3,0.1h9.7l0.2,1.1
			c0.4,1.7,0.6,3.4,0.6,5.1c0,2.5-0.2,4.8-0.7,6.7s-1.2,3.7-2,5.2c-0.9,1.5-2,2.8-3.3,3.9c-1.3,1.1-2.8,2.1-4.4,3
			c-2.6,0.9-5.6,2.5-5.1,5.3c0.4,2.3,2.6,3.9,4.9,3.6c0.1,0,0.1,0,0.1,0c6.5-3,12.4-4.4,17.5-4.4c0.7,0,1.6,0.1,2.8,0.3
			c1.2,0.2,2.5,0.5,3.9,0.8s2.8,0.7,4.3,1c1.5,0.4,2.9,0.7,4.3,1s2.6,0.6,3.8,0.8c1.1,0.2,2,0.4,2.7,0.4h0.2c5.2,0,10.7-2.2,11-2.3
			c0.5-0.2,2.1-0.8,2.1-0.8c2.5-0.6,4-3,3.5-5.4C385.5,186.6,383.3,185.1,381.1,185.3z"/>
	</g>
</g>
</svg>
