<?xml version="1.0" encoding="utf-8"?>
<!-- Generator: Adobe Illustrator 24.0.1, SVG Export Plug-In . SVG Version: 6.00 Build 0)  -->
<svg version="1.1" id="Layer_1" xmlns="http://www.w3.org/2000/svg" xmlns:xlink="http://www.w3.org/1999/xlink" x="0px" y="0px"
	 viewBox="0 0 469 524.6" style="enable-background:new 0 0 469 524.6;" xml:space="preserve">
<style type="text/css">
	.st0{fill:#001F3F;stroke:#2EC0F9;stroke-width:6;stroke-miterlimit:10;}
	.st1{fill:#2EC0F9;stroke:#2EC0F9;stroke-miterlimit:10;}
	.st2{fill:#97FF56;stroke:#97FF56;stroke-miterlimit:10;}
</style>
<g id="surface1">
	<path class="st0" d="M452.5,146.5l0-0.4c-0.2-4.9-0.4-10.1-0.5-15.9c-0.4-28.2-22.9-51.6-51.1-53.2
		c-58.9-3.3-104.4-22.5-143.3-60.4l-0.3-0.3c-12.7-11.6-31.8-11.6-44.5,0l-0.3,0.3C173.5,54.5,128,73.7,69.1,77
		C40.9,78.6,18.4,102,18,130.2c-0.1,5.8-0.2,11-0.5,15.9l0,0.9c-1.1,60-2.6,134.7,22.4,202.5c13.7,37.3,34.6,69.7,61.9,96.3
		c31.1,30.3,71.8,54.4,121,71.6c1.6,0.6,3.3,1,5,1.4c2.4,0.5,4.8,0.7,7.2,0.7s4.8-0.2,7.2-0.7c1.7-0.3,3.4-0.8,5-1.4
		c49.2-17.2,89.9-41.3,120.9-71.6c27.3-26.7,48.1-59.1,61.9-96.4C455,281.5,453.6,206.6,452.5,146.5z M401.8,339.1
		c-26.4,71.5-80.2,120.6-164.5,150c-0.3,0.1-0.6,0.2-1,0.3c-0.9,0.2-1.8,0.2-2.6,0c-0.3-0.1-0.6-0.2-0.9-0.3
		c-84.4-29.4-138.3-78.5-164.6-150c-23-62.5-21.7-131.1-20.6-191.6l0-0.3c0.2-5.2,0.4-10.6,0.5-16.6c0.2-12.5,10.2-22.9,22.7-23.6
		c33.3-1.9,62.6-8.3,89.5-19.7c26.9-11.4,50.7-27.4,72.9-49c1.1-1,2.6-1,3.7,0c22.2,21.6,46.1,37.6,72.9,49
		c26.9,11.4,56.2,17.8,89.5,19.7c12.6,0.7,22.5,11.1,22.7,23.6c0.1,6,0.2,11.5,0.5,16.6C423.6,207.8,424.9,276.5,401.8,339.1z"/>
	<path class="st1" d="M235,136c-70.4,0-127.6,57.2-127.6,127.6c0,70.4,57.2,127.6,127.6,127.6c70.4,0,127.6-57.2,127.6-127.6
		C362.6,193.2,305.4,136,235,136z M235,361.1c-53.8,0-97.6-43.8-97.6-97.6S181.2,166,235,166c53.8,0,97.6,43.8,97.6,97.6
		S288.8,361.1,235,361.1z"/>
	<path class="st2" d="M271.7,224l-59.3,59.3l-16.1-16.1c-5.9-5.9-15.4-5.9-21.2,0c-5.9,5.9-5.9,15.4,0,21.2l26.7,26.7
		c2.9,2.9,6.8,4.4,10.6,4.4s7.7-1.5,10.6-4.4l69.9-69.9c5.9-5.9,5.9-15.4,0-21.2C287,218.1,277.5,218.1,271.7,224z"/>
</g>
</svg>
